<svg width="49" height="49" viewBox="0 0 49 49" fill="none" xmlns="http://www.w3.org/2000/svg">
<path d="M8.50693 15.6531L16.3333 17.9125L24.9355 11.665L12.5903 12.0189C12.4694 12.0255 12.3522 12.063 12.25 12.1278L8.34359 14.3737C8.22208 14.441 8.12356 14.5432 8.06078 14.6671C7.998 14.791 7.97384 14.931 7.99143 15.0688C8.00902 15.2066 8.06755 15.3359 8.15945 15.4401C8.25135 15.5443 8.3724 15.6185 8.50693 15.6531Z" fill="white"/>
<path d="M46.9329 8.90109L46.9355 8.90163C47.3091 8.9781 47.6501 9.16755 47.9124 9.44433C48.1747 9.7211 48.3456 10.0718 48.4019 10.4489C48.4582 10.8261 48.3972 11.2114 48.2272 11.5527C48.0572 11.894 47.7864 12.1749 47.4514 12.3571L47.4514 12.3571L47.4479 12.3591C43.7868 14.4278 38.588 17.3538 33.1443 20.3751L33.0404 20.4327L33.0195 20.5498L29.7937 38.6389L29.7936 38.6393C29.7616 38.8206 29.6667 38.9849 29.5258 39.1033C29.5256 39.1035 29.5254 39.1036 29.5252 39.1038L26.1232 41.9342L26.1229 41.9345C26.0532 41.9927 25.969 42.0308 25.8792 42.0446C25.7895 42.0584 25.6977 42.0474 25.6138 42.0129C25.5298 41.9784 25.4569 41.9216 25.4028 41.8487C25.3487 41.7758 25.3156 41.6895 25.307 41.5991L25.3069 41.5986L23.7825 25.9322L23.7458 25.5547L23.4133 25.7373C19.6097 27.8262 16.0995 29.7242 13.3247 31.183C10.5468 32.6434 8.52136 33.6554 7.67169 33.9839C7.5921 34.0117 7.50673 34.0189 7.42357 34.0048C7.33944 33.9905 7.26039 33.9549 7.19398 33.9013L7.19238 33.9L1.13757 29.097C1.13723 29.0967 1.1369 29.0965 1.13656 29.0962C0.900919 28.9047 0.73127 28.6441 0.651523 28.351C0.571663 28.0576 0.585995 27.7465 0.692495 27.4616C0.798995 27.1768 0.992282 26.9326 1.24506 26.7635C1.49749 26.5946 1.79651 26.5092 2.1 26.5193C2.10043 26.5193 2.10086 26.5193 2.10129 26.5193L8.31913 26.7915L8.40639 26.7953L8.47704 26.7439L34.379 7.91977L34.379 7.9198L34.382 7.91754C34.9437 7.49626 35.5894 7.20075 36.2754 7.05104C36.9613 6.90134 37.6715 6.90095 38.3576 7.0499L38.3579 7.04997L46.9329 8.90109Z" stroke="white" stroke-width="0.5"/>
</svg>
